<?xml version="1.0" encoding="utf-8"?>
<svg viewBox="0 0 65 65" xmlns="http://www.w3.org/2000/svg">
  <defs/>
  <path fill="currentColor" class="svg-sign" d="M 16.781 12.625 L 13.156 6.375 L 2.344 12.625 L 0 8.594 L 14.906 0 L 18.5 6.25 L 29.344 0 L 32.938 6.25 L 43.781 0 L 49.719 10.281 L 45.656 12.625 L 42.031 6.375 L 31.219 12.625 L 27.594 6.375 L 16.781 12.625 M 16.781 32.625 L 13.156 26.375 L 2.344 32.625 L 0 28.594 L 14.906 20 L 18.5 26.25 L 29.344 20 L 32.938 26.25 L 43.781 20 L 49.719 30.281 L 45.656 32.625 L 42.031 26.375 L 31.219 32.625 L 27.594 26.375 L 16.781 32.625" id="text2453"/>
</svg>