<?xml version="1.0" encoding="utf-8"?>
<svg viewBox="0 0 65 65" xmlns="http://www.w3.org/2000/svg">
  <defs/>
  <path  fill="currentColor" class="svg-sign" d="M 0 25.5 C 1.896 26.708 3.719 27.688 5.469 28.438 C 9.927 30.375 14.875 31.344 20.312 31.344 C 23.729 31.344 26.969 30.958 30.031 30.188 C 29.76 29.958 29.51 29.729 29.281 29.5 C 28.344 28.542 27.656 27.521 27.219 26.438 C 26.76 25.313 26.531 24.115 26.531 22.844 C 26.531 21.594 26.76 20.406 27.219 19.281 C 27.698 18.094 28.385 17.073 29.281 16.219 C 30.26 15.281 31.271 14.594 32.312 14.156 C 33.396 13.698 34.583 13.469 35.875 13.469 C 37.229 13.469 38.417 13.698 39.437 14.156 C 40.646 14.698 41.656 15.386 42.469 16.219 C 43.406 17.177 44.094 18.198 44.531 19.281 C 44.99 20.406 45.219 21.594 45.219 22.844 C 45.219 24.094 44.99 25.292 44.531 26.438 C 44.031 27.688 43.24 28.761 42.156 29.656 C 40.635 30.906 38.896 31.948 36.937 32.781 C 31.854 34.948 26.312 36.031 20.312 36.031 C 14.167 36.031 8.625 34.948 3.687 32.781 C 2.417 32.219 1.187 31.625 0 31 L 0 25.5 M 34.094 27.219 C 34.635 27.448 35.229 27.563 35.875 27.563 C 36.521 27.563 37.115 27.448 37.656 27.219 C 38.219 26.969 38.729 26.625 39.187 26.188 C 39.604 25.771 39.948 25.261 40.219 24.656 C 40.448 24.094 40.562 23.49 40.562 22.844 C 40.562 22.219 40.448 21.625 40.219 21.063 C 39.99 20.521 39.646 20.011 39.187 19.531 C 38.792 19.136 38.281 18.792 37.656 18.5 C 37.115 18.271 36.521 18.156 35.875 18.156 C 35.229 18.156 34.635 18.271 34.094 18.5 C 33.531 18.75 33.021 19.094 32.562 19.531 C 32.146 19.948 31.802 20.458 31.531 21.063 C 31.302 21.625 31.187 22.219 31.187 22.844 C 31.187 23.49 31.302 24.094 31.531 24.656 C 31.76 25.198 32.104 25.708 32.562 26.188 C 32.958 26.583 33.469 26.927 34.094 27.219 M 45.219 10.531 C 43.323 9.323 41.5 8.344 39.75 7.594 C 35.292 5.656 30.344 4.688 24.906 4.688 C 21.49 4.688 18.25 5.073 15.187 5.844 C 15.458 6.073 15.708 6.302 15.937 6.531 C 16.875 7.49 17.562 8.511 18 9.594 C 18.458 10.719 18.687 11.917 18.687 13.188 C 18.687 14.438 18.458 15.625 18 16.75 C 17.521 17.938 16.833 18.958 15.937 19.813 C 14.958 20.75 13.948 21.438 12.906 21.875 C 11.823 22.333 10.635 22.563 9.344 22.563 C 7.99 22.563 6.802 22.333 5.781 21.875 C 4.573 21.333 3.562 20.646 2.75 19.813 C 1.812 18.854 1.125 17.833 0.687 16.75 C 0.229 15.625 0 14.438 0 13.188 C 0 11.938 0.229 10.74 0.687 9.594 C 1.187 8.344 1.979 7.271 3.062 6.375 C 4.583 5.125 6.323 4.083 8.281 3.25 C 13.365 1.084 18.906 0 24.906 0 C 31.052 0 36.594 1.084 41.531 3.25 C 42.802 3.813 44.031 4.406 45.219 5.031 L 45.219 10.531 M 11.125 8.813 C 10.583 8.583 9.99 8.469 9.344 8.469 C 8.698 8.469 8.104 8.583 7.562 8.813 C 7 9.063 6.49 9.406 6.031 9.844 C 5.615 10.261 5.271 10.771 5 11.375 C 4.771 11.938 4.656 12.542 4.656 13.188 C 4.656 13.813 4.771 14.406 5 14.969 C 5.229 15.511 5.573 16.021 6.031 16.5 C 6.427 16.896 6.937 17.24 7.562 17.531 C 8.104 17.761 8.698 17.875 9.344 17.875 C 9.99 17.875 10.583 17.761 11.125 17.531 C 11.687 17.281 12.198 16.938 12.656 16.5 C 13.073 16.083 13.417 15.573 13.687 14.969 C 13.917 14.406 14.031 13.813 14.031 13.188 C 14.031 12.542 13.917 11.938 13.687 11.375 C 13.458 10.833 13.115 10.323 12.656 9.844 C 12.26 9.448 11.75 9.104 11.125 8.813" id="text2445"/>
</svg>