<?xml version="1.0" encoding="utf-8"?>
<svg viewBox="0 0 65 65" xmlns="http://www.w3.org/2000/svg">
  <defs/>
  <path  fill="currentColor" class="svg-sign" d="M 25.687 33.594 C 25.312 33.032 24.958 32.438 24.625 31.813 C 22.937 28.646 22.094 25.157 22.094 21.344 L 22.094 18.719 C 22.094 15.011 21.875 12.209 21.437 10.313 C 20.771 7.396 19.948 5.938 18.969 5.938 C 17.969 5.938 16.583 7.803 14.812 11.532 C 13.417 14.469 12.719 17.594 12.719 20.907 L 12.719 28.75 L 8.031 28.75 L 8.031 18.719 C 8.031 15.032 7.76 12.23 7.219 10.313 C 6.385 7.396 4.729 5.938 2.25 5.938 L 0 5.938 L 0 0 L 2.625 0 C 5.771 0 8.177 1.417 9.844 4.25 C 10.76 5.813 11.375 7.355 11.687 8.875 C 12.312 7.021 13.146 5.417 14.187 4.063 C 16.292 1.355 18.115 0 19.656 0 C 21.135 0 22.708 1.417 24.375 4.25 C 25.271 5.75 25.833 7.292 26.062 8.875 C 26.479 11.771 26.687 14.261 26.687 16.344 L 26.687 19.813 C 26.687 22.792 27.083 25.344 27.875 27.469 C 28.646 25.782 29.521 24.438 30.5 23.438 C 31.437 22.48 32.687 21.688 34.25 21.063 C 35.5 20.563 36.948 20.313 38.594 20.313 C 39.99 20.313 41.281 20.563 42.469 21.063 C 43.677 21.563 44.771 22.303 45.75 23.282 C 46.708 24.24 47.448 25.344 47.969 26.594 C 48.469 27.823 48.719 29.125 48.719 30.5 C 48.719 31.855 48.469 33.146 47.969 34.375 C 47.448 35.625 46.708 36.73 45.75 37.688 C 44.854 38.584 43.76 39.323 42.469 39.907 C 41.365 40.407 39.969 40.657 38.281 40.657 C 36.573 40.657 34.969 40.407 33.469 39.907 C 31.948 39.407 30.542 38.636 29.25 37.594 C 28.896 38.511 28.521 39.375 28.125 40.188 C 27.208 42.021 26.115 43.469 24.844 44.532 C 23.198 45.907 21.667 46.865 20.25 47.407 C 18.542 48.073 16.75 48.407 14.875 48.407 L 13.125 48.407 L 13.125 43.719 L 14.875 43.719 C 16.271 43.719 17.458 43.5 18.437 43.063 C 19.646 42.542 20.635 41.917 21.406 41.188 C 22.281 40.396 23.01 39.469 23.594 38.407 C 24.26 37.198 24.958 35.594 25.687 33.594 M 31 32.375 C 32.562 34.084 34.073 35.146 35.531 35.563 C 36.469 35.834 37.396 35.969 38.312 35.969 C 39.292 35.969 40.083 35.834 40.687 35.563 C 41.354 35.271 41.948 34.875 42.469 34.375 C 42.969 33.875 43.375 33.282 43.687 32.594 C 43.958 31.99 44.094 31.292 44.094 30.5 C 44.094 29.75 43.958 29.042 43.687 28.375 C 43.437 27.75 43.031 27.157 42.469 26.594 C 41.948 26.094 41.354 25.698 40.687 25.407 C 40.062 25.136 39.375 25 38.625 25 C 37.917 25 37.177 25.136 36.406 25.407 C 35.552 25.719 34.906 26.115 34.469 26.594 C 32.99 28.261 31.833 30.188 31 32.375" id="text2461"/>
</svg>