<?xml version="1.0" encoding="utf-8"?>
<svg viewBox="0 0 40 40" preserveAspectRatio="xMinYMin" xmlns="http://www.w3.org/2000/svg">
  <defs/>
  <path style="fill:none;fill-opacity:0.75;fill-rule:evenodd;stroke:#000000;stroke-width:2;stroke-linecap:butt;stroke-linejoin:miter;stroke-opacity:1;opacity:1;color:#000000;marker:none;marker-start:none;marker-mid:none;marker-end:none;stroke-miterlimit:4;stroke-dasharray:none;stroke-dashoffset:0;visibility:visible;display:inline;overflow:visible" d="M 24.103 0.023 L 24.103 39.023" id="path6576"/>
  <path style="fill:none;fill-opacity:0.75;fill-rule:evenodd;stroke:#000000;stroke-width:2;stroke-linecap:butt;stroke-linejoin:miter;stroke-opacity:1;opacity:1;color:#000000;marker:none;marker-start:none;marker-mid:none;marker-end:none;stroke-miterlimit:4;stroke-dasharray:none;stroke-dashoffset:0;visibility:visible;display:inline;overflow:visible" d="M 30.104 29.023 L 1.104 29.023" id="path6578"/>
  <path style="fill:none;fill-opacity:0.75;fill-rule:evenodd;stroke:#000000;stroke-width:2;stroke-linecap:butt;stroke-linejoin:miter;stroke-opacity:1;opacity:1;color:#000000;marker:none;marker-start:none;marker-mid:none;marker-end:none;stroke-miterlimit:4;stroke-dasharray:none;stroke-dashoffset:0;visibility:visible;display:inline;overflow:visible" d="M 4.104 14.023 C 3.104 14.023 1.104 13.023 1.104 9.023 C 1.104 5.023 5.104 1.023 9.104 1.023 C 13.104 1.023 17.104 4.023 17.104 11.023 C 17.104 18.023 12.104 29.023 2.104 29.023" id="path6580"/>
  <path style="opacity:1;color:#000000;fill:#000000;fill-opacity:1;fill-rule:evenodd;stroke:none;stroke-width:2;stroke-linecap:butt;stroke-linejoin:miter;marker:none;marker-start:none;marker-mid:none;marker-end:none;stroke-miterlimit:4;stroke-dasharray:none;stroke-dashoffset:0;stroke-opacity:1;visibility:visible;display:inline;overflow:visible" id="path6582" d="M 6.031 13.023 C 6.031 14.563 4.425 15.525 3.14 14.755 C 2.544 14.398 2.176 13.738 2.176 13.023 C 2.176 11.484 3.782 10.521 5.067 11.291 C 5.663 11.648 6.031 12.309 6.031 13.023 Z"/>
</svg>