<?xml version="1.0" encoding="utf-8"?>
<svg viewBox="0 0 65 65" xmlns="http://www.w3.org/2000/svg">
  <defs/>
  <path  fill="currentColor" class="svg-sign" d="M 26.813 37.687 C 26.625 38.417 26.532 39.021 26.532 39.5 C 26.532 40.229 26.625 40.823 26.813 41.281 C 27.063 41.823 27.354 42.25 27.688 42.562 C 28.063 42.917 28.479 43.198 28.938 43.406 C 29.396 43.615 30.104 43.719 31.063 43.719 C 31.917 43.719 32.667 43.573 33.313 43.281 C 34.125 42.927 34.813 42.479 35.375 41.937 L 38.688 45.25 C 37.771 46.125 36.563 46.917 35.063 47.625 C 33.979 48.146 32.646 48.406 31.063 48.406 C 29.459 48.406 28.167 48.187 27.188 47.75 C 26.063 47.25 25.125 46.625 24.375 45.875 C 23.542 45.042 22.917 44.115 22.5 43.094 C 22.084 42.052 21.875 40.854 21.875 39.5 C 21.875 38.021 22.094 36.729 22.532 35.625 C 24.115 31.729 25.657 28.792 27.157 26.812 C 29.032 24.333 30.479 21.698 31.5 18.906 C 31.959 17.677 32.188 16.281 32.188 14.719 C 32.188 13.031 31.959 11.625 31.5 10.5 C 31.063 9.417 30.375 8.396 29.438 7.437 C 28.625 6.604 27.615 5.917 26.407 5.375 C 25.386 4.917 24.198 4.687 22.844 4.687 C 21.552 4.687 20.365 4.917 19.282 5.375 C 18.24 5.812 17.23 6.5 16.25 7.437 C 15.355 8.292 14.667 9.312 14.188 10.5 C 13.73 11.625 13.5 12.823 13.5 14.094 C 13.5 15.448 13.73 16.635 14.188 17.656 C 14.75 18.885 15.552 20.427 16.594 22.281 C 17.99 24.719 18.688 27.031 18.688 29.219 C 18.688 30.469 18.459 31.656 18 32.781 C 17.563 33.865 16.875 34.885 15.938 35.844 C 15.125 36.677 14.115 37.365 12.907 37.906 C 11.886 38.365 10.698 38.594 9.344 38.594 C 8.052 38.594 6.865 38.365 5.782 37.906 C 4.74 37.469 3.73 36.781 2.75 35.844 C 1.855 34.99 1.167 33.969 0.688 32.781 C 0.23 31.656 0 30.469 0 29.219 C 0 27.948 0.23 26.75 0.688 25.625 C 1.125 24.542 1.813 23.521 2.75 22.562 C 3.563 21.729 4.573 21.042 5.782 20.5 C 6.802 20.042 7.99 19.812 9.344 19.812 L 9.875 19.812 C 9.167 18.208 8.813 16.312 8.813 14.125 C 8.813 12.104 9.157 10.292 9.844 8.687 C 10.594 6.937 11.625 5.406 12.938 4.094 C 14.25 2.781 15.771 1.76 17.5 1.031 C 19.125 0.344 20.907 0 22.844 0 C 24.886 0 26.667 0.344 28.188 1.031 C 30 1.844 31.521 2.865 32.75 4.094 C 34.125 5.469 35.157 7 35.844 8.687 C 36.532 10.375 36.875 12.396 36.875 14.75 C 36.875 17.083 36.532 19.073 35.844 20.719 C 34.552 23.865 32.959 26.76 31.063 29.406 C 28.917 32.469 27.5 35.229 26.813 37.687 M 11.125 24.844 C 10.584 24.615 9.99 24.5 9.344 24.5 C 8.698 24.5 8.105 24.615 7.563 24.844 C 7 25.094 6.49 25.437 6.032 25.875 C 5.573 26.354 5.23 26.865 5 27.406 C 4.771 27.969 4.657 28.573 4.657 29.219 C 4.657 29.844 4.771 30.437 5 31 C 5.23 31.542 5.573 32.052 6.032 32.531 C 6.49 32.969 7 33.312 7.563 33.562 C 8.105 33.792 8.698 33.906 9.344 33.906 C 9.99 33.906 10.584 33.792 11.125 33.562 C 11.688 33.312 12.198 32.969 12.657 32.531 C 13.115 32.052 13.459 31.542 13.688 31 C 13.917 30.437 14.032 29.844 14.032 29.219 C 14.032 28.573 13.917 27.969 13.688 27.406 C 13.459 26.865 13.115 26.354 12.657 25.875 C 12.198 25.437 11.688 25.094 11.125 24.844" id="text2457"/>
</svg>