<?xml version="1.0" encoding="utf-8"?>
<svg viewBox="0 0 65 65" xmlns="http://www.w3.org/2000/svg">
  <defs/>
  <path  fill="currentColor" class="svg-sign" d="M 17.843 28.344 L 0 28.344 L 0 23.657 L 10.75 23.657 C 9.999 22.698 9.374 21.657 8.875 20.532 C 8.104 18.761 7.718 16.886 7.718 14.907 C 7.718 12.865 8.104 10.959 8.875 9.188 C 9.687 7.355 10.833 5.74 12.312 4.344 C 13.791 2.948 15.479 1.865 17.375 1.094 C 19.187 0.365 21.166 0 23.312 0 C 25.562 0 27.541 0.365 29.25 1.094 C 31.229 1.948 32.916 3.032 34.312 4.344 C 35.791 5.74 36.937 7.355 37.75 9.188 C 38.52 10.959 38.906 12.865 38.906 14.907 C 38.906 16.886 38.52 18.761 37.75 20.532 C 37.249 21.657 36.624 22.698 35.875 23.657 L 46.625 23.657 L 46.625 28.344 L 28.75 28.344 L 28.75 23.657 C 29.541 23.219 30.291 22.688 31 22.063 C 32.02 21.167 32.822 20.063 33.406 18.75 C 33.947 17.521 34.218 16.23 34.218 14.875 C 34.218 13.5 33.947 12.198 33.406 10.969 C 32.843 9.74 32.041 8.636 31 7.657 C 30.02 6.761 28.843 6.021 27.468 5.438 C 26.281 4.938 24.895 4.688 23.312 4.688 C 21.812 4.688 20.427 4.938 19.156 5.438 C 17.843 5.959 16.666 6.698 15.625 7.657 C 14.583 8.636 13.781 9.74 13.218 10.969 C 12.677 12.198 12.406 13.5 12.406 14.875 C 12.406 16.23 12.677 17.521 13.218 18.75 C 13.781 19.98 14.583 21.084 15.625 22.063 C 16.27 22.667 17.01 23.198 17.843 23.657 L 17.843 28.344 M 0 42.407 L 0 37.719 L 46.625 37.719 L 46.625 42.407 L 0 42.407" id="text2429"/>
</svg>