<?xml version="1.0" encoding="utf-8"?>
<svg viewBox="0 0 65 65" xmlns="http://www.w3.org/2000/svg">
  <defs/>
  <path  fill="currentColor" class="svg-sign" d="M 24.75 25.688 L 14.937 25.688 C 14.687 29.813 13.822 33.656 12.343 37.219 C 10.989 40.49 9.031 43.636 6.468 46.656 L 0 46.656 C 3.812 42.948 6.479 39.198 8 35.406 C 9.25 32.323 9.989 29.084 10.218 25.688 L 0.937 25.688 L 0.937 21 L 10.218 21 C 9.989 17.604 9.25 14.365 8 11.281 C 6.458 7.49 3.791 3.729 0 0 L 6.468 0 C 9.01 3.021 10.968 6.177 12.343 9.469 C 13.843 13.031 14.708 16.875 14.937 21 L 24.75 21 C 24.979 16.875 25.843 13.031 27.343 9.469 C 28.718 6.177 30.677 3.021 33.218 0 L 39.687 0 C 35.895 3.729 33.229 7.49 31.687 11.281 C 30.437 14.365 29.697 17.604 29.468 21 L 38.437 21 L 38.437 25.688 L 29.468 25.688 C 29.697 29.084 30.437 32.323 31.687 35.406 C 33.208 39.198 35.875 42.948 39.687 46.656 L 33.218 46.656 C 30.656 43.636 28.697 40.49 27.343 37.219 C 25.864 33.594 25 29.75 24.75 25.688" id="text2465"/>
</svg>