<?xml version="1.0" encoding="utf-8"?>
<svg viewBox="0 0 65 65" xmlns="http://www.w3.org/2000/svg">
  <defs/>
  <path  fill="currentColor" class="svg-sign" d="M 42.312 56.406 C 40.708 56.406 39.416 56.187 38.437 55.75 C 37.312 55.249 36.375 54.624 35.625 53.875 C 34.791 53.041 34.166 52.114 33.75 51.093 C 33.333 50.052 33.125 48.843 33.125 47.468 L 33.125 18.718 C 33.125 15.01 32.906 12.208 32.469 10.312 C 31.802 7.395 30.979 5.937 30 5.937 C 29 5.937 27.614 7.802 25.844 11.531 C 24.448 14.468 23.75 17.593 23.75 20.906 L 23.75 47.5 L 19.062 47.5 L 19.062 18.718 C 19.062 15.031 18.843 12.229 18.406 10.312 C 17.76 7.395 16.937 5.937 15.937 5.937 C 14.937 5.937 13.552 7.802 11.781 11.531 C 10.385 14.468 9.687 17.593 9.687 20.906 L 9.687 47.5 L 5 47.5 L 5 18.718 C 5 14.364 4.437 10.5 3.312 7.125 C 2.666 5.187 1.562 3.229 0 1.25 L 4.812 1.25 C 5.625 2.062 6.343 3.062 6.969 4.25 C 7.677 5.625 8.239 7.166 8.656 8.875 C 9.281 7.02 10.114 5.416 11.156 4.062 C 13.26 1.354 14.979 0 16.312 0 C 17.791 0 19.364 1.416 21.031 4.25 C 21.677 5.333 22.239 6.875 22.719 8.875 C 23.343 7.02 24.177 5.416 25.219 4.062 C 27.323 1.354 29.146 0 30.687 0 C 32.166 0 33.739 1.416 35.406 4.25 C 36.302 5.75 36.864 7.291 37.094 8.875 C 37.51 11.77 37.718 14.26 37.719 16.343 L 37.719 47.5 C 37.718 48.291 37.812 48.885 38 49.281 C 38.25 49.822 38.541 50.25 38.875 50.562 C 39.25 50.916 39.666 51.197 40.125 51.406 C 40.583 51.614 41.291 51.718 42.25 51.718 L 44.062 51.718 L 44.062 47.656 L 50.75 54.062 L 44.062 60.5 L 44.062 56.406 L 42.312 56.406" id="text2441"/>
</svg>