<?xml version="1.0" encoding="utf-8"?>
<svg viewBox="0 0 65 65" xmlns="http://www.w3.org/2000/svg">
  <defs/>
  <path  fill="currentColor" class="svg-sign" d="M 10.094 11.437 C 9.531 10.104 8.729 8.916 7.688 7.875 C 6.729 6.916 5.552 6.125 4.156 5.5 C 2.948 4.958 1.563 4.687 0 4.687 L 0 0 C 2.146 0 4.125 0.385 5.938 1.156 C 7.833 1.968 9.521 3.104 11 4.562 C 12.5 6.041 13.646 7.739 14.438 9.656 C 15 10.989 15.802 12.177 16.844 13.218 C 17.802 14.177 18.979 14.968 20.375 15.593 C 21.583 16.135 22.969 16.406 24.531 16.406 C 26.031 16.406 27.417 16.135 28.688 15.593 C 30.021 15.031 31.198 14.239 32.219 13.218 C 33.261 12.177 34.063 10.989 34.625 9.656 C 35.417 7.739 36.563 6.041 38.063 4.562 C 39.542 3.104 41.229 1.968 43.125 1.156 C 44.938 0.385 46.917 0 49.063 0 L 49.063 4.687 C 47.5 4.687 46.115 4.958 44.906 5.5 C 43.511 6.125 42.333 6.916 41.375 7.875 C 40.333 8.916 39.531 10.104 38.969 11.437 C 38.177 13.333 37.031 15.031 35.531 16.531 C 34.802 17.26 33.854 18 32.688 18.75 C 33.854 19.5 34.802 20.239 35.531 20.968 C 37.031 22.468 38.177 24.166 38.969 26.062 C 39.74 27.937 40.125 29.948 40.125 32.093 C 40.125 34.177 39.74 36.156 38.969 38.031 C 38.156 39.948 37.011 41.645 35.531 43.125 C 34.052 44.583 32.365 45.718 30.469 46.531 C 28.656 47.302 26.677 47.687 24.531 47.687 C 22.281 47.687 20.302 47.302 18.594 46.531 C 16.615 45.635 14.927 44.5 13.531 43.125 C 12.052 41.645 10.906 39.948 10.094 38.031 C 9.323 36.156 8.938 34.177 8.938 32.093 C 8.938 29.948 9.323 27.937 10.094 26.062 C 10.927 24.041 12.073 22.343 13.531 20.968 C 14.427 20.114 15.386 19.375 16.406 18.75 C 15.365 18.125 14.406 17.385 13.531 16.531 C 12.073 15.114 10.927 13.416 10.094 11.437 M 28.688 21.906 C 27.417 21.364 26.031 21.093 24.531 21.093 C 23.031 21.093 21.646 21.364 20.375 21.906 C 19.083 22.489 17.906 23.281 16.844 24.281 C 15.761 25.406 14.958 26.593 14.438 27.843 C 13.896 29.156 13.625 30.573 13.625 32.093 C 13.625 33.552 13.896 34.937 14.438 36.25 C 14.958 37.5 15.761 38.687 16.844 39.812 C 17.906 40.812 19.083 41.604 20.375 42.187 C 21.646 42.729 23.031 43 24.531 43 C 26.031 43 27.417 42.729 28.688 42.187 C 29.979 41.604 31.156 40.812 32.219 39.812 C 33.302 38.687 34.104 37.5 34.625 36.25 C 35.167 34.937 35.438 33.552 35.438 32.093 C 35.438 30.573 35.167 29.156 34.625 27.843 C 34.104 26.593 33.302 25.406 32.219 24.281 C 31.156 23.281 29.979 22.489 28.688 21.906" id="text2433"/>
</svg>