<?xml version="1.0" encoding="utf-8"?>
<svg viewBox="0 0 40 40" preserveAspectRatio="xMinYMin" xmlns="http://www.w3.org/2000/svg">
  <defs/>
  <path style="fill:#000000;fill-opacity:1;fill-rule:evenodd;stroke:none;stroke-width:1px;stroke-linecap:butt;stroke-linejoin:miter;stroke-opacity:1" d="M 7 24 L 0 24 L 0 23 L 5 22 L 5 2 L 0 1 L 0 0 L 7 0 L 7 24 Z" id="path6778"/>
  <path style="fill:#000000;fill-opacity:1;fill-rule:evenodd;stroke:none;stroke-width:1px;stroke-linecap:butt;stroke-linejoin:miter;stroke-opacity:1" d="M 29 24 L 36 24 L 36 23 L 31 22 L 31 2 L 36 1 L 36 0 L 29 0 L 29 24 Z" id="path6780"/>
  <path style="fill:none;fill-opacity:0.75;fill-rule:evenodd;stroke:#000000;stroke-width:2;stroke-linecap:butt;stroke-linejoin:miter;stroke-opacity:1;stroke-miterlimit:4;stroke-dasharray:none" d="M 6 12 L 30 12" id="path6782"/>
  <path style="fill:none;fill-opacity:0.75;fill-rule:evenodd;stroke:#000000;stroke-width:2;stroke-linecap:butt;stroke-linejoin:miter;stroke-opacity:1;opacity:1;color:#000000;marker:none;marker-start:none;marker-mid:none;marker-end:none;stroke-miterlimit:4;stroke-dasharray:none;stroke-dashoffset:0;visibility:visible;display:inline;overflow:visible" d="M 18 0 L 18 26" id="path6784"/>
  <path style="opacity:1;color:#000000;fill:none;fill-opacity:0.75;fill-rule:evenodd;stroke:#000000;stroke-width:2;stroke-linecap:butt;stroke-linejoin:miter;marker:none;marker-start:none;marker-mid:none;marker-end:none;stroke-miterlimit:4;stroke-dasharray:none;stroke-dashoffset:0;stroke-opacity:1;visibility:visible;display:inline;overflow:visible" id="path6786" d="M 22 31 C 22 34.079 18.666 36.004 16 34.464 C 14.762 33.75 14 32.429 14 31 C 14 27.921 17.333 25.997 20 27.536 C 21.237 28.251 22 29.571 22 31 Z"/>
</svg>