<?xml version="1.0" encoding="utf-8"?>
<svg viewBox="0 0 65 65" xmlns="http://www.w3.org/2000/svg">
  <defs/>
  <path  fill="currentColor" class="svg-sign" d="M 37.812 45.281 C 40.125 42.948 41.896 40.292 43.125 37.313 C 44.354 34.313 44.968 31.146 44.969 27.813 C 44.968 24.917 44.791 22.813 44.437 21.5 C 43.896 19.479 43.146 18.469 42.187 18.469 C 41.646 18.469 40.885 19.448 39.906 21.406 C 38.51 24.198 37.812 27.323 37.812 30.781 L 37.812 45.281 M 34.062 53.906 C 33.166 54.385 32.25 54.833 31.312 55.25 C 29 56.271 26.479 56.927 23.75 57.219 L 23.75 52.5 C 25.812 52.208 27.739 51.677 29.531 50.906 C 30.823 50.344 32.041 49.698 33.187 48.969 C 33.146 48.49 33.125 47.99 33.125 47.469 L 33.125 18.719 C 33.125 15.011 32.906 12.208 32.469 10.313 C 31.802 7.396 30.979 5.938 30 5.938 C 29 5.938 27.614 7.802 25.844 11.531 C 24.448 14.469 23.75 17.594 23.75 20.906 L 23.75 47.5 L 19.062 47.5 L 19.062 18.719 C 19.062 15.031 18.843 12.229 18.406 10.313 C 17.76 7.396 16.937 5.938 15.937 5.938 C 14.937 5.938 13.552 7.802 11.781 11.531 C 10.385 14.469 9.687 17.594 9.687 20.906 L 9.687 47.5 L 5 47.5 L 5 18.719 C 5 14.365 4.437 10.5 3.312 7.125 C 2.666 5.188 1.562 3.229 0 1.25 L 4.812 1.25 C 5.625 2.063 6.344 3.063 6.969 4.25 C 7.677 5.625 8.239 7.167 8.656 8.875 C 9.281 7.021 10.114 5.417 11.156 4.063 C 13.26 1.354 14.979 0 16.312 0 C 17.791 0 19.364 1.417 21.031 4.25 C 21.677 5.333 22.239 6.875 22.719 8.875 C 23.343 7.021 24.177 5.417 25.219 4.063 C 27.323 1.354 29.146 0 30.687 0 C 32.166 0 33.739 1.417 35.406 4.25 C 36.302 5.75 36.864 7.292 37.094 8.875 C 37.406 11.063 37.614 13.552 37.719 16.344 C 38.135 15.49 38.656 14.688 39.281 13.938 C 40.802 12.125 42.135 11.219 43.281 11.219 C 44.948 11.219 46.396 12.865 47.625 16.156 C 48.979 19.781 49.656 23.667 49.656 27.813 C 49.656 31.875 48.927 35.636 47.469 39.094 C 45.885 42.844 43.708 46.073 40.937 48.781 C 40.062 49.635 39.146 50.438 38.187 51.188 C 38.416 52.167 38.718 53.115 39.094 54.031 C 39.906 56.01 41.166 57.875 42.875 59.625 L 36.812 59.625 C 35.875 58.125 35.187 56.854 34.75 55.813 C 34.5 55.188 34.271 54.552 34.062 53.906" id="text2437"/>
</svg>