<?xml version="1.0" encoding="utf-8"?>
<svg viewBox="76.107 153.17 181.223 176.658" xmlns="http://www.w3.org/2000/svg">
  <path d="M 130.618 227.42 C 129.448 231.034 128.816 234.89 128.816 238.893 C 128.816 259.452 145.482 276.118 166.041 276.118 C 186.6 276.118 203.266 259.452 203.266 238.893 C 203.266 234.89 202.634 231.034 201.464 227.42 L 208.763 227.42 C 211.468 232.914 216.261 237.194 222.107 239.225 L 222.107 290.695 L 109.709 290.695 L 109.709 239.225 C 115.555 237.194 120.348 232.914 123.053 227.42 Z" style="stroke: rgb(255, 255, 255); stroke-width: 2px;"/>
  <path d="M 78.582 207.671 C 78.582 194.729 89.074 184.237 102.016 184.237 C 108.688 184.237 114.709 187.026 118.977 191.501 L 212.839 191.501 C 217.107 187.026 223.128 184.237 229.8 184.237 C 242.742 184.237 253.234 194.729 253.234 207.671 C 253.234 213.194 251.323 218.27 248.127 222.276 L 211.473 222.276 C 208.907 219.06 207.169 215.154 206.584 210.88 L 125.232 210.88 C 124.647 215.154 122.91 219.06 120.343 222.276 L 83.689 222.276 C 80.493 218.27 78.582 213.194 78.582 207.671 Z" style="stroke: rgb(255, 255, 255); stroke-width: 2px;"/>
  <ellipse style="stroke: rgb(255, 255, 255); stroke-width: 2px;" cx="166.676" cy="241.2" rx="26.874" ry="26.874"/>
</svg>