<?xml version="1.0" encoding="utf-8"?>
<svg xmlns="http://www.w3.org/2000/svg" viewBox="0 0 22.816 23">
  <path d="M 3.389 9.669 L 9.389 5.769 C 9.692 5.501 10.084 5.358 10.489 5.369 C 10.829 5.462 11.095 5.728 11.189 6.069 C 11.328 6.33 11.287 6.65 11.089 6.869 C 10.815 7.134 10.513 7.368 10.189 7.569 L 7.189 9.869 C 7.023 10.023 6.982 10.269 7.089 10.469 C 7.089 10.669 7.489 10.869 7.889 10.869 L 17.389 12.269 C 17.575 12.266 17.755 12.338 17.889 12.469 C 18.035 12.633 18.107 12.85 18.089 13.069 C 18.092 13.474 17.791 13.818 17.389 13.869 L 11.089 13.269 C 10.789 13.269 10.689 13.369 10.589 13.569 C 10.489 13.769 10.789 13.869 11.089 13.969 L 17.389 15.769 C 17.846 15.853 18.096 16.352 17.889 16.769 C 17.889 17.169 17.489 17.369 16.889 17.169 L 10.689 16.069 C 10.289 15.969 10.089 16.069 10.089 16.269 C 10.089 16.469 10.089 16.769 10.389 16.869 L 15.589 18.769 C 15.668 18.821 15.736 18.889 15.789 18.969 C 15.904 19.071 15.976 19.214 15.989 19.369 C 15.966 19.571 15.856 19.753 15.689 19.869 C 15.581 19.977 15.44 20.047 15.289 20.069 L 15.089 20.069 L 9.689 18.369 C 9.389 18.269 9.089 18.369 8.989 18.469 C 8.889 18.569 8.989 18.869 9.289 19.069 L 12.889 20.869 C 13.105 21.03 13.187 21.317 13.089 21.569 C 12.989 21.869 12.689 21.969 12.089 21.769 C 6.622 19.769 3.422 18.402 2.489 17.669 C 1.986 17.125 1.61 16.476 1.389 15.769 C 1.082 15.145 0.911 14.463 0.889 13.769 C 0.855 13.436 0.855 13.101 0.889 12.769 C 0.975 12.497 1.075 12.23 1.189 11.969 C 1.491 11.544 1.826 11.143 2.189 10.769 C 2.552 10.364 2.954 9.996 3.389 9.669 Z M 5.889 1.769 L 4.989 7.069 L 7.989 5.269 L 7.389 1.469 C 7.389 0.969 7.089 0.669 6.689 0.769 C 6.289 0.869 5.889 1.169 5.689 1.769 L 5.889 1.769 Z M 11.689 4.669 L 17.289 0.969 C 17.694 0.668 18.273 0.813 18.489 1.269 C 18.793 1.705 18.653 2.309 18.189 2.569 L 13.789 6.269 C 13.608 6.428 13.608 6.709 13.789 6.869 C 13.948 7.049 14.229 7.049 14.389 6.869 L 20.189 2.869 C 20.636 2.478 21.338 2.694 21.489 3.269 C 21.861 3.782 21.668 4.509 21.089 4.769 L 15.089 8.769 C 14.987 8.882 14.987 9.055 15.089 9.169 C 15.089 9.369 15.389 9.369 15.689 9.169 L 20.689 6.769 C 20.755 6.755 20.823 6.755 20.889 6.769 C 20.955 6.757 21.022 6.757 21.089 6.769 C 21.294 6.722 21.509 6.758 21.689 6.869 C 21.835 7.033 21.907 7.25 21.889 7.469 C 21.882 7.653 21.811 7.83 21.689 7.969 C 21.614 8.091 21.511 8.194 21.389 8.269 L 16.589 10.769 L 10.389 10.069 C 9.689 9.869 9.589 9.669 9.989 9.369 L 11.289 8.369 L 12.489 7.369 C 12.576 7.247 12.644 7.112 12.689 6.969 C 12.769 6.779 12.803 6.574 12.789 6.369 C 12.821 6.203 12.821 6.034 12.789 5.869 C 12.704 5.724 12.603 5.59 12.489 5.469 C 12.278 5.116 11.964 4.836 11.589 4.669 L 11.689 4.669 Z" data-name="sign-language" style="fill: rgb(191, 191, 191);"/>
</svg>