<?xml version="1.0" encoding="utf-8"?>
<svg xmlns="http://www.w3.org/2000/svg" viewBox="0 0 20 23">
  <g id="icon-easy-speech_01bfef9c-1046-4fe6-906c-3cda211aebce" data-name="easy-speech" transform="matrix(1, 0, 0, 1, 0, 0)">
    <path d="M7.84,6.13a3.12,3.12,0,0,0,.95.64A3.08,3.08,0,0,0,10,7H10a3.27,3.27,0,0,0,1.16-.26,2.82,2.82,0,0,0,.95-.63,3,3,0,0,0,.66-.94A3,3,0,0,0,13,4V3.91a2.81,2.81,0,0,0-.22-1.13,3,3,0,0,0-.62-.91,3.15,3.15,0,0,0-.93-.64A2.87,2.87,0,0,0,10.09,1H9.91a2.78,2.78,0,0,0-1.11.22,3.13,3.13,0,0,0-.91.62,2.67,2.67,0,0,0-.66.92A3,3,0,0,0,7,3.93v.16a2.83,2.83,0,0,0,.22,1.12A2.93,2.93,0,0,0,7.84,6.13Z" style="fill: rgb(191, 191, 191);"/>
    <path d="M16.48,7.29A13.49,13.49,0,0,0,14.09,8a12.5,12.5,0,0,0-2.18,1.13A14,14,0,0,0,10,10.66,14.89,14.89,0,0,0,8.09,9.13,12.69,12.69,0,0,0,5.9,8a12.93,12.93,0,0,0-2.41-.73A13.65,13.65,0,0,0,1,7V18.34a13.65,13.65,0,0,1,2.49.25,13.35,13.35,0,0,1,2.4.72,12.73,12.73,0,0,1,2.19,1.16A14.32,14.32,0,0,1,10,22a13.21,13.21,0,0,1,1.91-1.51,14.09,14.09,0,0,1,2.18-1.14,13.49,13.49,0,0,1,2.39-.72A12.38,12.38,0,0,1,19,18.38V7A13.13,13.13,0,0,0,16.48,7.29Z" style="fill: rgb(191, 191, 191);"/>
  </g>
</svg>