<?xml version="1.0" encoding="UTF-8" standalone="no"?>
<!-- Created with Inkscape (http://www.inkscape.org/) -->

<svg
   xmlns:dc="http://purl.org/dc/elements/1.1/"
   xmlns:cc="http://creativecommons.org/ns#"
   xmlns:rdf="http://www.w3.org/1999/02/22-rdf-syntax-ns#"
   xmlns:svg="http://www.w3.org/2000/svg"
   xmlns="http://www.w3.org/2000/svg"
   xmlns:sodipodi="http://sodipodi.sourceforge.net/DTD/sodipodi-0.dtd"
   xmlns:inkscape="http://www.inkscape.org/namespaces/inkscape"
   id="svg2"
   sodipodi:version="0.32"
   inkscape:version="0.47 r22583"
   width="255"
   height="255"
   sodipodi:docname="Astrological_Glyphs.svg"
   version="1.0">
  <metadata
     id="metadata7">
    <rdf:RDF>
      <cc:Work
         rdf:about="">
        <dc:format>image/svg+xml</dc:format>
        <dc:type
           rdf:resource="http://purl.org/dc/dcmitype/StillImage" />
        <dc:title></dc:title>
      </cc:Work>
    </rdf:RDF>
  </metadata>
  <defs
     id="defs5" />
  <sodipodi:namedview
     inkscape:window-height="978"
     inkscape:window-width="1280"
     inkscape:pageshadow="2"
     inkscape:pageopacity="0.0"
     borderopacity="1.0"
     bordercolor="#666666"
     pagecolor="#ffffff"
     id="base"
     inkscape:grid-bbox="false"
     inkscape:grid-points="true"
     showgrid="true"
     gridtolerance="3.4px"
     inkscape:zoom="2.281472"
     inkscape:cx="103.93835"
     inkscape:cy="113.71687"
     inkscape:window-x="-4"
     inkscape:window-y="-4"
     inkscape:current-layer="svg2"
     inkscape:window-maximized="0" />
  <path
     sodipodi:type="arc"
     style="opacity:1;color:#000000;fill:none;fill-opacity:1;fill-rule:evenodd;stroke:#000000;stroke-width:1.99847329;stroke-linecap:butt;stroke-linejoin:miter;marker:none;marker-start:none;marker-mid:none;marker-end:none;stroke-miterlimit:4;stroke-dasharray:none;stroke-dashoffset:0;stroke-opacity:1;visibility:visible;display:inline;overflow:visible"
     id="path1308"
     sodipodi:cx="33.772552"
     sodipodi:cy="36.70454"
     sodipodi:rx="15.623922"
     sodipodi:ry="16.319134"
     d="M 49.396475 36.70454 A 15.623922 16.319134 0 1 1  18.14863,36.70454 A 15.623922 16.319134 0 1 1  49.396475 36.70454 z"
     transform="matrix(1.022388,0,0,0.979597,-0.532287,1.029379)" />
  <path
     sodipodi:type="arc"
     style="opacity:1;color:#000000;fill:#000000;fill-opacity:1;fill-rule:evenodd;stroke:none;stroke-width:2;stroke-linecap:butt;stroke-linejoin:miter;marker:none;marker-start:none;marker-mid:none;marker-end:none;stroke-miterlimit:4;stroke-dasharray:none;stroke-dashoffset:0;stroke-opacity:1;visibility:visible;display:inline;overflow:visible"
     id="path2183"
     sodipodi:cx="34"
     sodipodi:cy="37"
     sodipodi:rx="4"
     sodipodi:ry="5"
     d="M 38 37 A 4 5 0 1 1  30,37 A 4 5 0 1 1  38 37 z"
     transform="matrix(1,0,0,0.8,-5.551115e-16,7.4)" />
  <path
     sodipodi:type="arc"
     style="opacity:1;color:#000000;fill:none;fill-opacity:1;fill-rule:evenodd;stroke:#000000;stroke-width:2.08333325;stroke-linecap:butt;stroke-linejoin:miter;marker:none;marker-start:none;marker-mid:none;marker-end:none;stroke-miterlimit:4;stroke-dasharray:none;stroke-dashoffset:0;stroke-opacity:1;visibility:visible;display:inline;overflow:visible"
     id="path3058"
     sodipodi:cx="100.5"
     sodipodi:cy="36.5"
     sodipodi:rx="11.5"
     sodipodi:ry="11.5"
     d="M 112 36.5 A 11.5 11.5 0 1 1  89,36.5 A 11.5 11.5 0 1 1  112 36.5 z"
     transform="matrix(0.96,0,0,0.96,3.52,0.96)" />
  <path
     sodipodi:type="arc"
     style="opacity:1;color:#000000;fill:none;fill-opacity:1;fill-rule:evenodd;stroke:#000000;stroke-width:2.08333325;stroke-linecap:butt;stroke-linejoin:miter;marker:none;marker-start:none;marker-mid:none;marker-end:none;stroke-miterlimit:4;stroke-dasharray:none;stroke-dashoffset:0;stroke-opacity:1;visibility:visible;display:inline;overflow:visible"
     id="path3060"
     sodipodi:cx="100.5"
     sodipodi:cy="36.5"
     sodipodi:rx="11.5"
     sodipodi:ry="11.5"
     d="M 111.9469,37.603862 A 11.5,11.5 0 0 1 89.052015,37.592533"
     transform="matrix(0.96,0,0,0.96,3.56,-22.08)"
     sodipodi:start="0.096136028"
     sodipodi:end="3.0464463"
     sodipodi:open="true" />
  <path
     style="fill:none;fill-opacity:0.75;fill-rule:evenodd;stroke:#000000;stroke-width:2;stroke-linecap:butt;stroke-linejoin:miter;stroke-opacity:1;stroke-miterlimit:4;stroke-dasharray:none"
     d="M 100,47 L 100,59"
     id="path3062" />
  <path
     style="fill:none;fill-opacity:0.75;fill-rule:evenodd;stroke:#000000;stroke-width:2;stroke-linecap:butt;stroke-linejoin:miter;stroke-opacity:1;stroke-miterlimit:4;stroke-dasharray:none"
     d="M 95,54 L 105,54"
     id="path3937" />
  <path
     sodipodi:type="arc"
     style="opacity:1;color:#000000;fill:none;fill-opacity:1;fill-rule:evenodd;stroke:#000000;stroke-width:2;stroke-linecap:butt;stroke-linejoin:miter;marker:none;marker-start:none;marker-mid:none;marker-end:none;stroke-miterlimit:4;stroke-dasharray:none;stroke-dashoffset:0;stroke-opacity:1;visibility:visible;display:inline;overflow:visible"
     id="path3939"
     sodipodi:cx="165"
     sodipodi:cy="33"
     sodipodi:rx="11"
     sodipodi:ry="11"
     d="M 176 33 A 11 11 0 1 1  154,33 A 11 11 0 1 1  176 33 z" />
  <path
     style="fill:none;fill-opacity:0.75;fill-rule:evenodd;stroke:#000000;stroke-width:2;stroke-linecap:butt;stroke-linejoin:miter;stroke-opacity:1;stroke-miterlimit:4;stroke-dasharray:none"
     d="M 165,44 L 165,58"
     id="path3941" />
  <path
     style="fill:none;fill-opacity:0.75;fill-rule:evenodd;stroke:#000000;stroke-width:2;stroke-linecap:butt;stroke-linejoin:miter;stroke-opacity:1;stroke-miterlimit:4;stroke-dasharray:none"
     d="M 159,52 L 171,52"
     id="path4816" />
  <path
     style="color:#000000;fill:none;fill-opacity:1;fill-rule:evenodd;stroke:#000000;stroke-width:2;stroke-linecap:butt;stroke-linejoin:round;stroke-miterlimit:3.4;stroke-dashoffset:0;stroke-opacity:1;marker:none;marker-start:none;marker-mid:none;marker-end:none;visibility:visible;display:inline;overflow:visible;stroke-dasharray:none"
     d="M 226.375 21 C 225.04184 21.050727 223.76172 21.267003 222.53125 21.625 C 229.15932 23.580213 234 29.7412 234 37 C 234 44.2588 229.15932 50.419787 222.53125 52.375 C 223.95102 52.788074 225.4475 53 227 53 C 235.832 53 243 45.832 243 37 C 243 28.168 235.832 21 227 21 C 226.793 21 226.5801 20.992196 226.375 21 z "
     id="path5691" />
  <path
     style="fill:none;fill-opacity:0.75;fill-rule:evenodd;stroke:#000000;stroke-width:2;stroke-linecap:butt;stroke-linejoin:miter;stroke-opacity:1;stroke-miterlimit:4;stroke-dasharray:none"
     d="M 226,98 L 226,127"
     id="path6570" />
  <path
     style="fill:none;fill-opacity:0.75;fill-rule:evenodd;stroke:#000000;stroke-width:2;stroke-linecap:butt;stroke-linejoin:miter;stroke-opacity:1;opacity:1;color:#000000;marker:none;marker-start:none;marker-mid:none;marker-end:none;stroke-miterlimit:4;stroke-dasharray:none;stroke-dashoffset:0;visibility:visible;display:inline;overflow:visible"
     d="M 222,104 L 234,104"
     id="path6572" />
  <path
     style="fill:none;fill-opacity:0.75;fill-rule:evenodd;stroke:#000000;stroke-width:2;stroke-linecap:butt;stroke-linejoin:miter;stroke-opacity:1;stroke-miterlimit:4;stroke-dasharray:none"
     d="M 240,133 C 239,134 238,135 237,135 C 236,135 234,134 234,132 C 234,130 235,128 237,126 C 239,124 241,120 241,116 C 241,112 239,108 235,108 C 231.21681,108 228,110 226,114"
     id="path6574"
     sodipodi:nodetypes="czzzzsz" />
  <path
     style="fill:none;fill-opacity:0.75;fill-rule:evenodd;stroke:#000000;stroke-width:2;stroke-linecap:butt;stroke-linejoin:miter;stroke-opacity:1;opacity:1;color:#000000;marker:none;marker-start:none;marker-mid:none;marker-end:none;stroke-miterlimit:4;stroke-dasharray:none;stroke-dashoffset:0;visibility:visible;display:inline;overflow:visible"
     d="M 174,95 L 174,134"
     id="path6576" />
  <path
     style="fill:none;fill-opacity:0.75;fill-rule:evenodd;stroke:#000000;stroke-width:2;stroke-linecap:butt;stroke-linejoin:miter;stroke-opacity:1;opacity:1;color:#000000;marker:none;marker-start:none;marker-mid:none;marker-end:none;stroke-miterlimit:4;stroke-dasharray:none;stroke-dashoffset:0;visibility:visible;display:inline;overflow:visible"
     d="M 180,124 L 151,124"
     id="path6578" />
  <path
     style="fill:none;fill-opacity:0.75;fill-rule:evenodd;stroke:#000000;stroke-width:2;stroke-linecap:butt;stroke-linejoin:miter;stroke-opacity:1;opacity:1;color:#000000;marker:none;marker-start:none;marker-mid:none;marker-end:none;stroke-miterlimit:4;stroke-dasharray:none;stroke-dashoffset:0;visibility:visible;display:inline;overflow:visible"
     d="M 154,109 C 153,109 151,108 151,104 C 151,100 155,96 159,96 C 163,96 167,99 167,106 C 167,113 162,124 152,124"
     id="path6580"
     sodipodi:nodetypes="czzzz" />
  <path
     sodipodi:type="arc"
     style="opacity:1;color:#000000;fill:#000000;fill-opacity:1;fill-rule:evenodd;stroke:none;stroke-width:2;stroke-linecap:butt;stroke-linejoin:miter;marker:none;marker-start:none;marker-mid:none;marker-end:none;stroke-miterlimit:4;stroke-dasharray:none;stroke-dashoffset:0;stroke-opacity:1;visibility:visible;display:inline;overflow:visible"
     id="path6582"
     sodipodi:cx="155.5"
     sodipodi:cy="109.5"
     sodipodi:rx="0.5"
     sodipodi:ry="0.5"
     d="M 156 109.5 A 0.5 0.5 0 1 1  155,109.5 A 0.5 0.5 0 1 1  156 109.5 z"
     transform="matrix(3.85432,0,0,3.99998,-445.3468,-329.9978)" />
  <path
     sodipodi:type="arc"
     style="opacity:1;color:#000000;fill:none;fill-opacity:1;fill-rule:evenodd;stroke:#000000;stroke-width:1.92307687;stroke-linecap:butt;stroke-linejoin:miter;marker:none;marker-start:none;marker-mid:none;marker-end:none;stroke-miterlimit:4;stroke-dasharray:none;stroke-dashoffset:0;stroke-opacity:1;visibility:visible;display:inline;overflow:visible"
     id="path6584"
     sodipodi:cx="98.5"
     sodipodi:cy="115.5"
     sodipodi:rx="11.5"
     sodipodi:ry="11.5"
     d="M 110 115.5 A 11.5 11.5 0 1 1  87,115.5 A 11.5 11.5 0 1 1  110 115.5 z"
     transform="matrix(1.04,0,0,1.04,-3.44,-4.12)" />
  <path
     sodipodi:type="arc"
     style="opacity:1;color:#000000;fill:none;fill-opacity:1;fill-rule:evenodd;stroke:#000000;stroke-width:1.94117641;stroke-linecap:butt;stroke-linejoin:miter;marker:none;marker-start:none;marker-mid:none;marker-end:none;stroke-miterlimit:4;stroke-dasharray:none;stroke-dashoffset:0;stroke-opacity:1;visibility:visible;display:inline;overflow:visible"
     id="path6772"
     sodipodi:cx="33.5"
     sodipodi:cy="116.5"
     sodipodi:rx="15.5"
     sodipodi:ry="15.5"
     d="M 49 116.5 A 15.5 15.5 0 1 1  18,116.5 A 15.5 15.5 0 1 1  49 116.5 z"
     transform="matrix(1.030303,0,0,1.030303,-0.515152,-3.030303)" />
  <path
     style="fill:none;fill-opacity:0.75;fill-rule:evenodd;stroke:#000000;stroke-width:2;stroke-linecap:butt;stroke-linejoin:miter;stroke-opacity:1;opacity:1;color:#000000;marker:none;marker-start:none;marker-mid:none;marker-end:none;stroke-miterlimit:4;stroke-dasharray:none;stroke-dashoffset:0;visibility:visible;display:inline;overflow:visible"
     d="M 18,117 L 50,117"
     id="path6774" />
  <path
     style="fill:none;fill-opacity:0.75;fill-rule:evenodd;stroke:#000000;stroke-width:2;stroke-linecap:butt;stroke-linejoin:miter;stroke-opacity:1;opacity:1;color:#000000;marker:none;marker-start:none;marker-mid:none;marker-end:none;stroke-miterlimit:4;stroke-dasharray:none;stroke-dashoffset:0;visibility:visible;display:inline;overflow:visible"
     d="M 34,101 L 34,133"
     id="path6776" />
  <path
     style="fill:#000000;fill-opacity:1;fill-rule:evenodd;stroke:none;stroke-width:1px;stroke-linecap:butt;stroke-linejoin:miter;stroke-opacity:1"
     d="M 25,204 L 18,204 L 18,203 L 23,202 L 23,182 L 18,181 L 18,180 L 25,180 L 25,204 z "
     id="path6778" />
  <path
     style="fill:#000000;fill-opacity:1;fill-rule:evenodd;stroke:none;stroke-width:1px;stroke-linecap:butt;stroke-linejoin:miter;stroke-opacity:1"
     d="M 47,204 L 54,204 L 54,203 L 49,202 L 49,182 L 54,181 L 54,180 L 47,180 L 47,204 z "
     id="path6780" />
  <path
     style="fill:none;fill-opacity:0.75;fill-rule:evenodd;stroke:#000000;stroke-width:2;stroke-linecap:butt;stroke-linejoin:miter;stroke-opacity:1;stroke-miterlimit:4;stroke-dasharray:none"
     d="M 24,192 L 48,192"
     id="path6782" />
  <path
     style="fill:none;fill-opacity:0.75;fill-rule:evenodd;stroke:#000000;stroke-width:2;stroke-linecap:butt;stroke-linejoin:miter;stroke-opacity:1;opacity:1;color:#000000;marker:none;marker-start:none;marker-mid:none;marker-end:none;stroke-miterlimit:4;stroke-dasharray:none;stroke-dashoffset:0;visibility:visible;display:inline;overflow:visible"
     d="M 36,180 L 36,206"
     id="path6784" />
  <path
     sodipodi:type="arc"
     style="opacity:1;color:#000000;fill:none;fill-opacity:0.75;fill-rule:evenodd;stroke:#000000;stroke-width:2;stroke-linecap:butt;stroke-linejoin:miter;marker:none;marker-start:none;marker-mid:none;marker-end:none;stroke-miterlimit:4;stroke-dasharray:none;stroke-dashoffset:0;stroke-opacity:1;visibility:visible;display:inline;overflow:visible"
     id="path6786"
     sodipodi:cx="36"
     sodipodi:cy="211"
     sodipodi:rx="4"
     sodipodi:ry="4"
     d="M 40 211 A 4 4 0 1 1  32,211 A 4 4 0 1 1  40 211 z" />
  <path
     style="fill:none;fill-opacity:0.75;fill-rule:evenodd;stroke:#000000;stroke-width:2;stroke-linecap:butt;stroke-linejoin:miter;stroke-opacity:1;opacity:1;color:#000000;marker:none;marker-start:none;marker-mid:none;marker-end:none;stroke-miterlimit:4;stroke-dasharray:none;stroke-dashoffset:0;visibility:visible;display:inline;overflow:visible"
     d="M 89,176 C 86,196 91,199 101,199 C 111,199 116,196 113,176"
     id="path6788"
     sodipodi:nodetypes="czz" />
  <path
     style="fill:none;fill-opacity:0.75;fill-rule:evenodd;stroke:#000000;stroke-width:2;stroke-linecap:butt;stroke-linejoin:miter;stroke-opacity:1;opacity:1;color:#000000;marker:none;marker-start:none;marker-mid:none;marker-end:none;stroke-miterlimit:4;stroke-dasharray:none;stroke-dashoffset:0;visibility:visible;display:inline;overflow:visible"
     d="M 101,178 L 101,215"
     id="path6790" />
  <path
     style="fill:none;fill-opacity:0.75;fill-rule:evenodd;stroke:#000000;stroke-width:2;stroke-linecap:butt;stroke-linejoin:miter;stroke-opacity:1;opacity:1;color:#000000;marker:none;marker-start:none;marker-mid:none;marker-end:none;stroke-miterlimit:4;stroke-dasharray:none;stroke-dashoffset:0;visibility:visible;display:inline;overflow:visible"
     d="M 93,207 L 109,207"
     id="path6792" />
  <path
     style="fill:none;fill-opacity:0.75;fill-rule:evenodd;stroke:#000000;stroke-width:2;stroke-linecap:butt;stroke-linejoin:miter;stroke-opacity:1;opacity:1;color:#000000;marker:none;marker-start:none;marker-mid:none;marker-end:none;stroke-miterlimit:4;stroke-dasharray:none;stroke-dashoffset:0;visibility:visible;display:inline;overflow:visible"
     d="M 157,205 L 173,205"
     id="path6794" />
  <path
     style="fill:none;fill-opacity:0.75;fill-rule:evenodd;stroke:#000000;stroke-width:2;stroke-linecap:butt;stroke-linejoin:miter;stroke-opacity:1;opacity:1;color:#000000;marker:none;marker-start:none;marker-mid:none;marker-end:none;stroke-miterlimit:4;stroke-dasharray:none;stroke-dashoffset:0;visibility:visible;display:inline;overflow:visible"
     d="M 165,213 L 165,196"
     id="path6796" />
  <path
     sodipodi:type="arc"
     style="opacity:1;color:#000000;fill:none;fill-opacity:0.75;fill-rule:evenodd;stroke:#000000;stroke-width:2;stroke-linecap:butt;stroke-linejoin:miter;marker:none;marker-start:none;marker-mid:none;marker-end:none;stroke-miterlimit:4;stroke-dasharray:none;stroke-dashoffset:0;stroke-opacity:1;visibility:visible;display:inline;overflow:visible"
     id="path6798"
     sodipodi:cx="165"
     sodipodi:cy="184"
     sodipodi:rx="7"
     sodipodi:ry="7"
     d="M 172 184 A 7 7 0 1 1  158,184 A 7 7 0 1 1  172 184 z" />
  <path
     sodipodi:type="arc"
     style="opacity:1;color:#000000;fill:none;fill-opacity:0.75;fill-rule:evenodd;stroke:#000000;stroke-width:2;stroke-linecap:butt;stroke-linejoin:miter;marker:none;marker-start:none;marker-mid:none;marker-end:none;stroke-miterlimit:4;stroke-dasharray:none;stroke-dashoffset:0;stroke-opacity:1;visibility:visible;display:inline;overflow:visible"
     id="path6800"
     sodipodi:cx="165"
     sodipodi:cy="184"
     sodipodi:rx="12"
     sodipodi:ry="12"
     d="M 177,184 A 12,12 0 1 1 153,184"
     sodipodi:start="0"
     sodipodi:end="3.1415927"
     sodipodi:open="true" />
  <path
     style="opacity:1;color:#000000;fill:none;fill-opacity:1;fill-rule:evenodd;stroke:#000000;stroke-width:1.99999928;stroke-linecap:butt;stroke-linejoin:miter;marker:none;marker-start:none;marker-mid:none;marker-end:none;stroke-miterlimit:4;stroke-dasharray:none;stroke-dashoffset:0;stroke-opacity:1;visibility:visible;display:inline;overflow:visible"
     d="M 109.63106,110.4341 L 118.49032,105.79584"
     id="path1361" />
  <path
     style="opacity:1;color:#000000;fill:none;fill-opacity:1;fill-rule:evenodd;stroke:#000000;stroke-width:1.99999928;stroke-linecap:butt;stroke-linejoin:miter;marker:none;marker-start:none;marker-mid:none;marker-end:none;stroke-miterlimit:4;stroke-dasharray:none;stroke-dashoffset:0;stroke-opacity:1;visibility:visible;display:inline;overflow:visible"
     d="M 111.74156,103.68534 L 118.49032,105.79584 L 116.37982,112.5446"
     id="path1365" />
</svg>
