<?xml version="1.0" encoding="utf-8"?>
<svg width="100%" height="100%" viewBox="0 0 451.13 435.166" version="1.1" style="fill-rule:evenodd;clip-rule:evenodd;stroke-linejoin:round;stroke-miterlimit:10;" xmlns="http://www.w3.org/2000/svg">
  <defs/>
  <g transform="matrix(1, 0, 0, 1, -71.802223, -335.446014)" style="">
    <path d="M71.991,421.338L524.101,421.338L524.101,683.77L71.991,683.77" style="fill:white;"/>
    <path d="M 397.161 503.193 L 369.582 503.193 L 369.582 644.283 L 397.161 644.283" style="fill:rgb(157,193,242);"/>
    <rect x="-312.826" y="-517.581" width="141.09" height="27.579" style="fill:none;stroke:white;stroke-width:1.99px;" transform="matrix(0, 1, 1, 0, 887.162994, 816.018768)"/>
    <path d="M 360.723 510.249 L 333.193 510.249 L 333.193 644.283 L 360.723 644.283 M 324.335 515.281 L 296.804 515.281 L 296.804 644.283 L 324.335 644.283 M 287.947 518.635 L 260.416 518.635 L 260.416 644.283 L 287.947 644.283 M 251.558 524.386 L 223.908 524.386 L 223.908 644.283 L 251.558 644.283 M 215.17 529.179 L 187.52 529.179 L 187.52 644.283 L 215.17 644.283 M 178.782 533.611 L 151.131 533.611 L 151.131 644.283 L 178.782 644.283 M 142.274 536.367 L 114.743 536.367 L 114.743 644.283 L 142.274 644.283 M 105.886 541.519 L 78.355 541.519 L 78.355 644.283 L 105.886 644.283" style="fill:rgb(168,168,168);"/>
    <path d="M 360.723 510.249 L 333.193 510.249 L 333.193 644.283 L 360.723 644.283 L 360.723 510.249 Z M 324.335 515.281 L 296.804 515.281 L 296.804 644.283 L 324.335 644.283 L 324.335 515.281 Z M 287.947 518.635 L 260.416 518.635 L 260.416 644.283 L 287.947 644.283 L 287.947 518.635 Z M 251.558 524.386 L 223.908 524.386 L 223.908 644.283 L 251.558 644.283 L 251.558 524.386 Z M 215.17 529.179 L 187.52 529.179 L 187.52 644.283 L 215.17 644.283 L 215.17 529.179 Z M 178.782 533.611 L 151.131 533.611 L 151.131 644.283 L 178.782 644.283 L 178.782 533.611 Z M 142.274 536.367 L 114.743 536.367 L 114.743 644.283 L 142.274 644.283 L 142.274 536.367 Z M 105.886 541.519 L 78.355 541.519 L 78.355 644.283 L 105.886 644.283 L 105.886 541.519 Z" style="fill:none;fill-rule:nonzero;stroke:white;stroke-width:1.99px;"/>
    <path d="M 397.161 465.656 L 369.582 465.656 L 369.582 503.193 L 397.161 503.193" style="fill:rgb(122,166,227);"/>
    <rect x="-364.603" y="-606.894" width="37.537" height="27.579" style="fill:none;stroke:white;stroke-width:1.99px;" transform="matrix(0, 1, 1, 0, 976.475952, 830.258987)"/>
    <path d="M 360.723 474.306 L 333.193 474.306 L 333.193 510.249 L 360.723 510.249 M 324.335 480.416 L 296.804 480.416 L 296.804 515.281 L 324.335 515.281 M 287.947 483.651 L 260.416 483.651 L 260.416 518.636 L 287.947 518.636 M 251.558 490.6 L 223.908 490.6 L 223.908 524.386 L 251.558 524.386 M 215.17 496.83 L 187.52 496.83 L 187.52 529.179 L 215.17 529.179 M 178.782 503.18 L 151.131 503.18 L 151.131 533.612 L 178.782 533.612 M 142.274 507.853 L 114.743 507.853 L 114.743 536.367 L 142.274 536.367 M 105.886 514.322 L 78.355 514.322 L 78.355 541.519 L 105.886 541.519" style="fill:rgb(127,127,127);"/>
    <path d="M 360.723 474.306 L 333.193 474.306 L 333.193 510.249 L 360.723 510.249 L 360.723 474.306 Z M 324.335 480.416 L 296.804 480.416 L 296.804 515.281 L 324.335 515.281 L 324.335 480.416 Z M 287.947 483.651 L 260.416 483.651 L 260.416 518.636 L 287.947 518.636 L 287.947 483.651 Z M 251.558 490.6 L 223.908 490.6 L 223.908 524.386 L 251.558 524.386 L 251.558 490.6 Z M 215.17 496.83 L 187.52 496.83 L 187.52 529.179 L 215.17 529.179 L 215.17 496.83 Z M 178.782 503.18 L 151.131 503.18 L 151.131 533.612 L 178.782 533.612 L 178.782 503.18 Z M 142.274 507.853 L 114.743 507.853 L 114.743 536.367 L 142.274 536.367 L 142.274 507.853 Z M 105.886 514.322 L 78.355 514.322 L 78.355 541.519 L 105.886 541.519 L 105.886 514.322 Z" style="fill: none; fill-rule: nonzero; stroke: white; stroke-width: 1.99px;"/>
    <path d="M 397.161 457.519 L 369.582 457.519 L 369.582 465.656 L 397.161 465.656" style="fill:rgb(42,108,200);"/>
    <rect x="-379.302" y="-629.731" width="8.138" height="27.579" style="fill:none;stroke:white;stroke-width:1.99px;" transform="matrix(0, 1, 1, 0, 999.313049, 836.819977)"/>
    <path d="M 360.723 466.039 L 333.193 466.039 L 333.193 474.306 L 360.723 474.306 M 324.335 472.149 L 296.804 472.149 L 296.804 480.416 L 324.335 480.416 M 287.947 475.504 L 260.416 475.504 L 260.416 483.651 L 287.947 483.651 M 251.558 482.333 L 223.908 482.333 L 223.908 490.6 L 251.558 490.6 M 215.17 488.323 L 187.52 488.323 L 187.52 496.83 L 215.17 496.83 M 178.782 494.793 L 151.131 494.793 L 151.131 503.18 L 178.782 503.18 M 142.274 499.585 L 114.743 499.585 L 114.743 507.852 L 142.274 507.852 M 105.886 506.055 L 78.355 506.055 L 78.355 514.322 L 105.886 514.322" style="fill:rgb(77,77,77);"/>
    <path d="M 360.723 466.039 L 333.193 466.039 L 333.193 474.306 L 360.723 474.306 L 360.723 466.039 Z M 324.335 472.149 L 296.804 472.149 L 296.804 480.416 L 324.335 480.416 L 324.335 472.149 Z M 287.947 475.504 L 260.416 475.504 L 260.416 483.651 L 287.947 483.651 L 287.947 475.504 Z M 251.558 482.333 L 223.908 482.333 L 223.908 490.6 L 251.558 490.6 L 251.558 482.333 Z M 215.17 488.323 L 187.52 488.323 L 187.52 496.83 L 215.17 496.83 L 215.17 488.323 Z M 178.782 494.793 L 151.131 494.793 L 151.131 503.18 L 178.782 503.18 L 178.782 494.793 Z M 142.274 499.585 L 114.743 499.585 L 114.743 507.852 L 142.274 507.852 L 142.274 499.585 Z M 105.886 506.055 L 78.355 506.055 L 78.355 514.322 L 105.886 514.322 L 105.886 506.055 Z" style="fill:none;fill-rule:nonzero;stroke:white;stroke-width:1.99px;"/>
    <g style="">
      <path d="M 80.244 672.59 C 81.346 672.59 82.239 671.697 82.239 670.595 C 82.239 669.493 81.346 668.6 80.244 668.6 C 79.142 668.6 78.249 669.493 78.249 670.595 C 78.249 671.697 79.142 672.59 80.244 672.59" style="fill: rgb(168, 168, 168); transform-box: fill-box; transform-origin: 50% 50%;" transform="matrix(-1, 0, 0, -1, -0.000003, 0.000071)"/>
      <path d="M 321.612 672.59 C 322.713 672.59 323.607 671.697 323.607 670.595 C 323.607 669.493 322.713 668.6 321.612 668.6 C 320.51 668.6 319.617 669.493 319.617 670.595 C 319.617 671.697 320.51 672.59 321.612 672.59" style="fill:rgb(168,168,168);"/>
      <path d="M 80.244 670.595 L 321.612 670.595" style="fill:none;fill-rule:nonzero;stroke:rgb(168,168,168);stroke-width:1px;stroke-linejoin:miter;"/>
      <path d="M 158.523 663.916 L 243.349 663.916 L 243.349 678.49 L 158.523 678.49" style="fill:white;"/>
      <text x="161.757" y="673.381" style="font-family: Calibri, sans-serif; font-size: 8.986px; white-space: pre;">Re<tspan x="171.097" y="673.381" style="font-size: 9px; word-spacing: 0px;">c</tspan>hnu<tspan x="188.952" y="673.381" style="font-size: 9px; word-spacing: 0px;">n</tspan>gs<tspan x="201.28" y="673.381" style="font-size: 9px; word-spacing: 0px;">e</tspan>rgebni<tspan x="228.768" y="673.381" style="font-size: 9px; word-spacing: 0px;">s</tspan>se</text>
      <text x="333.833" y="673.066" style="font-family: Calibri, sans-serif; font-size: 8.986px; white-space: pre;">Hausha<tspan x="360.885" y="673.066" style="font-size: 9px; word-spacing: 0px;">l</tspan>ts<tspan x="369.366" y="673.066" style="font-size: 9px; word-spacing: 0px;">a</tspan>ns<tspan x="381.801" y="673.066" style="font-size: 9px; word-spacing: 0px;">ä</tspan>tze</text>
      <text x="82.028" y="657.038" style="font-family: Calibri, sans-serif; font-size: 9.944px; white-space: pre;">2016<tspan x="118.319" y="657.038" style="font-size: 9.9px; word-spacing: 0px;">2</tspan>017<tspan x="154.609" y="657.038" style="font-size: 9.9px; word-spacing: 0px;">2</tspan>018<tspan x="190.899" y="657.038" style="font-size: 9.9px; word-spacing: 0px;">2</tspan>019<tspan x="227.189" y="657.038" style="font-size: 9.9px; word-spacing: 0px;">2</tspan>020<tspan x="263.996" y="657.038" style="font-size: 9.9px; word-spacing: 0px;">2</tspan>021<tspan x="300.286" y="657.038" style="font-size: 9.9px; word-spacing: 0px;">2</tspan>022<tspan x="336.577" y="657.038" style="font-size: 9.9px; word-spacing: 0px;">2</tspan>023<tspan x="372.867" y="657.038" style="font-size: 9.9px; word-spacing: 0px;">2</tspan>024</text>
    </g>
    <text x="371.972" y="440.031" style="font-family: Calibri, sans-serif; font-size: 9.9px; white-space: pre;">117,3</text>
    <text x="362.875" y="452.255" style="font-family: Calibri, sans-serif; font-size: 9.944px; white-space: pre;">Mrd. Euro></text>
    <text x="83.309" y="501.352" style="font-family: Calibri, sans-serif; font-size: 9.9px; white-space: pre;">86,8</text>
    <g>
      <text x="403.135" y="620.301" style="font-family: Calibri, sans-serif; font-size: 9.944px; fill: rgb(157, 193, 242); white-space: pre;">Allgemeiner und
</text>
      <text x="403.135" y="631.325" style="font-family: Calibri, sans-serif; font-size: 9.944px; fill: rgb(157, 193, 242); white-space: pre;">zusätzlicher Bundeszuschuss
</text>
      <text x="403.135" y="642.349" style="font-family: Calibri, sans-serif; font-size: 9.944px; fill: rgb(157, 193, 242); white-space: pre;">und Erhöhungsbeitrag</text>
    </g>
    <g>
      <text x="403.135" y="490.628" style="font-family: Calibri, sans-serif; font-size: 9.944px; fill: rgb(122, 166, 227); white-space: pre;">Zweckgebundene Beiträge
</text>
      <text x="403.135" y="501.652" style="font-family: Calibri, sans-serif; font-size: 9.944px; fill: rgb(122, 166, 227); white-space: pre;">und Erstattungen</text>
    </g>
    <g>
      <text x="403.135" y="465.214" style="font-family: Calibri, sans-serif; font-size: 9.944px; fill: rgb(42, 108, 200); white-space: pre;">Beteiligung (Defizitdeckung</text>
      <text x="403.135" y="476.238" style="font-family: Calibri, sans-serif; font-size: 9.944px; fill: rgb(42, 108, 200); white-space: pre;">bei der DRV KBS)</text>
    </g>
  </g>
  <g transform="matrix(1, 0, 0, 1, -71.802223, -72.228027)">
    <text x="72.011px" y="81.574px" style="font-family: Calibri, sans-serif; font-size: 9.944px; white-space: pre;">Abbildung 1</tspan></text>
    <g>
      <text x="72.011px" y="101.226px" style="font-family: Calibri, sans-serif; font-size: 17.971px; white-space: pre;">Nominale Ausgaben des Bundes für die gesetzliche
</text>
      <text x="72.011px" y="122.077px" style="font-family: Calibri, sans-serif; font-size: 17.971px; white-space: pre;">Rentenversicherung steigen weiter an
</text>
    </g>
    <g>
      <text x="72.011px" y="139.571px" style="font-family: Calibri, sans-serif; font-size: 9.944px; white-space: pre;">Seit dem Jahr 2016 bis zum Jahr 2024 erhöhen sich die jährlichen Zahlungen des Bundes an die Haushalte der
</text>
      <text x="72.011px" y="152.275px" style="font-family: Calibri, sans-serif; font-size: 9.944px; white-space: pre;">Träger von 86,8 auf 117,3 Mrd. Euro.</text>
    </g>
    <g>
      <text x="72.011px" y="445.554px" style="font-family: Calibri, sans-serif; font-size: 9.944px; white-space: pre;">Erläuterung: In den 117,3 Mrd. Euro sind auch die außerhalb der Titelgruppe 01 in Kapitel 1102 etatisierten Ti-
</text>
      <text x="72.011px" y="458.258px" style="font-family: Calibri, sans-serif; font-size: 9.944px; white-space: pre;">tel 636 02 bis 636 07 sowie 685 01 und 685 02 enthalten, die ebenfalls Leistungen an die Deutsche Rentenver-
</text>
      <text x="72.011px" y="471.082px" style="font-family: Calibri, sans-serif; font-size: 9.944px; white-space: pre;">sicherungen beinhalten.
</text>
    </g>
    <g>
      <text x="72.011px" y="487.256px" style="font-family: Calibri, sans-serif; font-size: 9.944px; white-space: pre;">rafik: Bundesrechnungshof. Quelle: Haushaltsrechnung (Rechnungsergebnisse) des Bundes für die Haushalts-</text>
      <text x="72.011px" y="500.08px" style="font-family: Calibri, sans-serif; font-size: 9.944px; white-space: pre;">jahre 2016 bis 2022; Haushaltsplan 2023; Haushaltsentwurf 2024.</text>
    </g>
  </g>
</svg>