<?xml version="1.0" encoding="utf-8"?>
<svg width="100%" height="100%" viewBox="-0.753 0.276 258.945 349.425" version="1.1" style="fill-rule:evenodd;clip-rule:evenodd;stroke-linejoin:round;stroke-miterlimit:2;" xmlns="http://www.w3.org/2000/svg">
  <defs/>
  <g id="Seite-11" transform="matrix(0.994573, 0, 0, 1.006807, -300.208801, -128.442533)" style="transform-origin: 300.209px 128.443px;">
    <title>text</title>
    <text x="300.209" y="137.385" style="font-family: Barlow-Regular, Barlow; font-size: 9px; white-space: pre;"><title>number</title>Abbildung 1</text>
    <text x="300.209px" y="158.764px" style="font-family: Barlow-Regular, Barlow; font-size: 17.998px; white-space: pre;"><title>title</title>Viv<tspan x="323.75px " y="158.764px ">a</tspan>mus sagittis lacus v<tspan x="484.595px " y="158.764px ">e</tspan>l augue <tspan x="300.2090148925781" dy="1em">​</tspan>rutrum faucibus dolor auctor.</text>
    <text x="300.209px" y="195.96px" style="font-family: Barlow-Regular, Barlow; font-size: 11.998px; white-space: pre;"><title>decription</title>Prae<tspan x="324.074px " y="195.96px ">s</tspan>ent comm<tspan x="381.979px " y="195.96px ">o</tspan>do cursus magna, v<tspan x="487.517px " y="195.96px ">e</tspan>l scelerisque <tspan x="300.2090148925781" dy="1em">​</tspan>consectetur et. Fusce dapibus, tellus ac cursus <tspan x="300.2090148925781" dy="1em">​</tspan>commodo, tortor mauris condimentum nibh, ut <tspan x="300.2090148925781" dy="1em">​</tspan>fermentum massa justo sit amet risus.<tspan x="300.2090148925781" dy="1em">​</tspan></text>
    <text x="300.209" y="473.1" style="font-family: Barlow-Regular, Barlow; font-size: 9px; white-space: pre;"><title>source</title>Quellenangaben</text>
  </g>
  <g transform="matrix(1, 0, 0, 1, -299, -130)">
    <title>column-1</title>
    <text style="font-family: Barlow; font-size: 11.998px; white-space: pre;" x="302.758px" y="390.468px">149,5</text>
    <text style="font-family: Barlow; font-size: 9px; white-space: pre;" x="307.297" y="457.32">2015</text>
    <rect x="299" y="-443.276" width="35" height="49" style="fill:rgb(64,64,64);" transform="matrix(1, 0, 0, -1, 0, 0)"/>
  </g>
  <g transform="matrix(1, 0, 0, 1, -300, -130)">
    <title>column-2</title>
    <text style="font-family: Barlow; font-size: 11.998px; white-space: pre;" x="358.393px" y="356.459px">156,1</text>
    <text style="font-family: Barlow; font-size: 9px; white-space: pre;" x="362.927" y="457.32">2016</text>
    <rect x="355" width="34" height="83" style="fill:rgb(64,64,64);" transform="matrix(1, 0, 0, -1, 0, 0)" y="-443.276"/>
  </g>
  <g transform="matrix(1, 0, 0, 1, -300, -130)">
    <title>column-3</title>
    <text style="font-family: Barlow; font-size: 11.998px; white-space: pre;" x="414.028px" y="302.354px">166,6</text>
    <text style="font-family: Barlow; font-size: 9px; white-space: pre;" x="418.567" y="457.32">2017</text>
    <rect x="410" width="35" height="137" style="fill:rgb(64,64,64);" transform="matrix(1, 0, 0, -1, 0, 0)" y="-443.276"/>
  </g>
  <g transform="matrix(1, 0, 0, 1, -300, -130)">
    <title>column-4</title>
    <text style="font-family: Barlow; font-size: 11.998px; white-space: pre;" x="469.663px" y="315.236px">164,1</text>
    <text style="font-family: Barlow; font-size: 9px; white-space: pre;" x="474.198" y="457.32">2018</text>
    <rect x="466" width="35" height="124" style="fill:rgb(64,64,64);" transform="matrix(1, 0, 0, -1, 0, 0)" y="-443.276"/>
  </g>
  <g transform="matrix(1, 0, 0, 1, -300, -130)">
    <title>column-5</title>
    <text style="font-family: Barlow; font-size: 11.998px; white-space: pre;" x="525.298px" y="261.131px">174,6</text>
    <text style="font-family: Barlow; font-size: 9px; white-space: pre;" x="529.369" y="457.32">2019</text>
    <rect x="521.655" y="265.582" width="34.806" height="178.027" style="fill:rgb(41,108,204);"/>
  </g>
</svg>